<svg xmlns="http://www.w3.org/2000/svg" xmlns:xlink="http://www.w3.org/1999/xlink" id="processonSvg1000" viewBox="3.0 2.0 80.0 80.0" width="80.0" height="80.0"><defs id="ProcessOnDefs1001"><pattern id="ProcessOnPattern1007" patternUnits="userSpaceOnUse" width="40.0" height="40.0"><g id="ProcessOnG1008" transform="matrix(1.0,0.0,0.0,1.0,4.0,4.0)"><svg version="1.1" xmlns="http://www.w3.org/2000/svg" xmlns:xlink="http://www.w3.org/1999/xlink" x="0px" y="0px" width="32px" height="32px" viewBox="0 0 32 32" enable-background="new 0 0 32 32"> <path fill="#000" d="M10.719,5L5,10.75l5.719,5.75l1.5-1.531l-3.156-3.281 h10.313c3.325,0,6,2.674,6,6s-2.675,6-6,6h-12v2h12c4.406,0,8-3.594,8-8s-3.594-8-8-8H9.063L12.219,6.5L10.719,5z"/> </svg> </g></pattern></defs><g id="ProcessOnG1002"><path id="ProcessOnPath1003" d="M3.0 2.0H83.0V82.0H3.0V2.0Z" fill="none"/><g id="ProcessOnG1004"><g id="ProcessOnG1005" transform="matrix(1.0,0.0,0.0,1.0,23.0,22.0)" opacity="1.0"><path id="ProcessOnPath1006" d="M0.0 0.0L40.0 0.0L40.0 40.0L0.0 40.0Z" stroke="#323232" stroke-width="0.0" stroke-dasharray="none" opacity="1.0" fill="url(#ProcessOnPattern1007)"/></g></g></g></svg>