<?xml version="1.0" ?><svg height="100" viewBox="0 0 100 100" width="100" xmlns="http://www.w3.org/2000/svg"><path d="M50 0c27.614 0 50 22.386 50 50s-22.386 50-50 50-50-22.386-50-50 22.386-50 50-50z" fill="#E2574C"/><path d="M73.979 38.289c-.604-.123-1.233.064-1.672.502l-14.223 14.504c-1.434 1.436-6.255.387-9.5-.879-1.268-3.245-2.316-8.067-.886-9.5l14.575-14.154c.438-.437.628-1.064.502-1.668-.125-.606-.55-1.107-1.121-1.335-9.08-3.611-19.413-1.482-26.32 5.422-6.098 6.098-8.358 14.649-6.568 22.598-.23 3.94-3.812 8.557-5.664 10.44l-14.232 14.201c3.646 5.268 8.276 9.799 13.627 13.331l13.557-13.532c1.901-1.873 7.035-5.404 10.946-5.809.59.038 1.811.119 2.082.179l-.002-.023c7.626 1.108 15.329-1.382 20.808-6.854 6.907-6.896 9.04-17.225 5.428-26.299-.228-.576-.73-.998-1.337-1.124z" fill="#CD4F45"/><path d="M73.979 37.289c-.604-.123-1.233.064-1.672.502l-14.223 14.504c-1.434 1.436-6.255.387-9.5-.879-1.268-3.245-2.316-8.067-.886-9.5l14.575-14.154c.438-.437.628-1.064.502-1.668-.125-.606-.55-1.107-1.121-1.335-9.08-3.611-19.413-1.482-26.32 5.422-6.098 6.098-8.358 14.649-6.568 22.598-.23 3.94-3.812 8.557-5.664 10.44l-14.644 14.611c3.572 5.321 8.139 9.917 13.435 13.523l14.16-14.135c1.901-1.873 7.035-5.404 10.946-5.809.59.038 1.811.119 2.082.179l-.002-.023c7.626 1.108 15.329-1.382 20.808-6.854 6.907-6.896 9.04-17.225 5.428-26.299-.227-.575-.729-.997-1.336-1.123z" fill="#EDEDED"/><g fill="#E1E1E1"><path d="M76.862 44.556c.127 1.086.187 2.175.17 3.26-.073-2.83-.63-5.673-1.717-8.403-.228-.575-.729-.998-1.337-1.123-.604-.123-1.233.064-1.672.502l-14.222 14.503c-1.434 1.436-6.255.387-9.5-.879-.111-.284-.22-.581-.327-.887l-33.716 33.717c2.247 2.261 4.709 4.307 7.353 6.107l14.16-14.135c1.901-1.873 7.035-5.404 10.946-5.809.59.038 1.811.119 2.082.179l-.002-.023c7.626 1.108 15.329-1.382 20.808-6.854 5.382-5.374 7.849-12.831 6.974-20.155zM75.994 40.375l-.146-.465.146.465zM76.807 44.104c-.039-.29-.083-.578-.134-.866.05.288.095.577.134.866zM76.486 42.29l-.174-.754.174.754z"/></g><path d="M35.334 31.181c6.907-6.904 17.24-9.033 26.32-5.422.534.213.931.67 1.083 1.224.085-.285.101-.589.038-.889-.125-.606-.55-1.107-1.121-1.335-9.08-3.611-19.413-1.482-26.32 5.422-4.811 4.811-7.223 11.15-7.151 17.515.179-6.026 2.592-11.956 7.151-16.515zM23.102 63.219l-14.644 14.611.411.59 14.232-14.201c1.851-1.884 5.433-6.5 5.664-10.44l-.069-.361c-.544 3.788-3.842 8.018-5.594 9.801z" fill="#F4F4F4"/><path d="M28.711 67.717l-15.806 15.805c1.12 1.238 2.301 2.422 3.539 3.543l15.808-15.808c.978-.979.978-2.563 0-3.541s-2.563-.977-3.541.001z" fill="#CCD0D2"/><path d="M28.711 67.717l-15.806 15.805.484.517 15.322-15.322c.979-.978 2.563-.978 3.541 0 .361.361.586.805.681 1.271.162-.796-.064-1.653-.681-2.271-.978-.978-2.563-.978-3.541 0z" fill="#B8BCBE"/></svg>